<svg width="40" height="40" viewBox="0 0 40 40" fill="none" xmlns="http://www.w3.org/2000/svg">
<circle cx="20" cy="20" r="19" fill="url(#paint0_linear_11_8773)"/>
<circle cx="20" cy="20" r="16.5" fill="url(#paint1_linear_11_8773)" stroke="black"/>
<path d="M19.6468 29.8839C18.6632 29.8839 18 29.1904 18 28.1599C18 27.1294 18.6677 26.4344 19.7022 26.4344C20.7366 26.4344 21.3564 27.0862 21.3759 28.1763C21.3759 29.2068 20.7187 29.8839 19.7022 29.8839H19.6468ZM18.6587 24.366L18.0284 11.4466C18.0045 10.9291 18.3279 10.2863 18.7904 10.1372C19.074 10.0467 19.37 10.0005 19.6677 10C19.979 10.0025 20.288 10.0528 20.5839 10.1491C21.075 10.2983 21.4133 10.9485 21.3879 11.466L20.7591 24.3675C20.7443 24.6193 20.634 24.8561 20.4506 25.03C20.2671 25.2038 20.0242 25.3018 19.771 25.304H19.6468C19.393 25.3034 19.149 25.2065 18.9644 25.0331C18.7798 24.8597 18.6683 24.6228 18.6527 24.3704L18.6587 24.366Z" fill="black"/>
<rect x="30.9385" y="7.68848" width="2" height="33.3224" transform="rotate(45 30.9385 7.68848)" fill="black"/>
<defs>
<linearGradient id="paint0_linear_11_8773" x1="19.9993" y1="39" x2="19.9993" y2="1" gradientUnits="userSpaceOnUse">
<stop stop-color="#F5BF00"/>
<stop offset="0.51" stop-color="#FFD028"/>
<stop offset="1" stop-color="#FFF3C4"/>
</linearGradient>
<linearGradient id="paint1_linear_11_8773" x1="19.9994" y1="37" x2="19.9994" y2="3" gradientUnits="userSpaceOnUse">
<stop stop-color="#F5BF00"/>
<stop offset="0.51" stop-color="#FFD028"/>
<stop offset="1" stop-color="#FFF3C4"/>
</linearGradient>
</defs>
</svg>
