<svg width="40" height="40" viewBox="0 0 40 40" fill="none" xmlns="http://www.w3.org/2000/svg">
<g clip-path="url(#clip0_11_8767)">
<path d="M5.31346 37C3.14422 37 1.40463 36.1589 0.554296 34.6899C-0.296036 33.221 -0.161301 31.3031 0.92407 29.4285L15.1117 4.94985C16.1986 3.07525 17.7975 2 19.4996 2C21.2018 2 22.8022 3.07525 23.889 4.94985L38.0752 29.4285C39.1621 31.3031 39.2968 33.221 38.4465 34.6899C37.5961 36.1589 35.8595 37 33.6843 37H5.31346Z" fill="url(#paint0_linear_11_8767)"/>
<path d="M19.4989 2.14913C21.1457 2.14913 22.6996 3.19306 23.7581 5.02442L37.9457 29.5031C39.0042 31.33 39.1434 33.1941 38.3155 34.6154C37.4876 36.0366 35.8049 36.8524 33.6866 36.8524H5.31276C3.19441 36.8524 1.50722 36.0381 0.683835 34.6154C-0.13955 33.1926 -0.000323171 31.33 1.04762 29.5031L15.2398 5.02442C16.2997 3.19306 17.8522 2.14913 19.4989 2.14913ZM19.4989 2C17.7968 2 16.2054 3.07525 15.111 4.94985L0.923365 29.4285C-0.162006 31.3031 -0.299736 33.221 0.55359 34.6899C1.40692 36.1589 3.14351 37 5.31276 37H33.6836C35.8558 37 37.5909 36.1589 38.4428 34.6899C39.2946 33.221 39.1584 31.3031 38.0715 29.4285L23.8883 4.94985C22.8015 3.07525 21.2011 2 19.4989 2Z" fill="#8C7100"/>
<path d="M19.4988 4.42937C20.3192 4.42937 21.1276 5.04529 21.7758 6.16528L28.8689 18.4046L35.9635 30.6425C36.6117 31.7625 36.7435 32.7676 36.3333 33.476C35.9231 34.1844 34.9859 34.5736 33.6865 34.5736H5.31263C4.01468 34.5736 3.06703 34.1829 2.66582 33.476C2.26461 32.7691 2.38737 31.7639 3.0356 30.6425L10.1287 18.4046L17.2233 6.16528C17.8715 5.04529 18.6799 4.42937 19.4988 4.42937ZM19.4988 3.53458C18.394 3.53458 17.2876 4.26234 16.4448 5.71788L9.35171 17.9572L2.25862 30.1951C0.57143 33.1061 1.94573 35.4669 5.31263 35.4669H33.6835C37.0579 35.4669 38.4247 33.1061 36.7375 30.1951L29.6414 17.9572L22.5543 5.71788C21.71 4.26234 20.6081 3.53458 19.4988 3.53458Z" fill="black"/>
<path d="M19.4622 31.5119C18.4786 31.5119 17.8154 30.8184 17.8154 29.7879C17.8154 28.7574 18.4831 28.0625 19.5176 28.0625C20.5521 28.0625 21.1718 28.7142 21.1913 29.8043C21.1913 30.8348 20.5341 31.5119 19.5176 31.5119H19.4622ZM18.4741 25.994L17.8439 13.0746C17.8199 12.5571 18.1433 11.9144 18.6059 11.7652C18.8895 11.6748 19.1854 11.6285 19.4832 11.628C19.7944 11.6305 20.1035 11.6808 20.3994 11.7772C20.8904 11.9263 21.2287 12.5765 21.2033 13.094L20.5745 25.9955C20.5597 26.2473 20.4494 26.4841 20.266 26.658C20.0826 26.8319 19.8397 26.9298 19.5865 26.932H19.4622C19.2084 26.9314 18.9645 26.8345 18.7798 26.6611C18.5952 26.4877 18.4837 26.2508 18.4681 25.9985L18.4741 25.994Z" fill="black"/>
<path style="mix-blend-mode:screen" d="M30.3907 17.7037L23.2213 5.33461C22.2766 3.7031 20.9203 2.76654 19.4996 2.76654C18.0789 2.76654 16.724 3.7031 15.7779 5.33461L1.5917 29.8118C1.41943 30.1055 1.26931 30.4116 1.14258 30.7275L30.3907 17.7037Z" fill="url(#paint1_linear_11_8767)"/>
</g>
<defs>
<linearGradient id="paint0_linear_11_8767" x1="19.4996" y1="37" x2="19.4996" y2="2" gradientUnits="userSpaceOnUse">
<stop stop-color="#F5BF00"/>
<stop offset="0.51" stop-color="#FFD028"/>
<stop offset="1" stop-color="#FFF3C4"/>
</linearGradient>
<linearGradient id="paint1_linear_11_8767" x1="15.7689" y1="30.7275" x2="15.7689" y2="2.76654" gradientUnits="userSpaceOnUse">
<stop stop-color="#141414"/>
<stop offset="1" stop-color="#5C5C5C"/>
</linearGradient>
<clipPath id="clip0_11_8767">
<rect width="40" height="40" fill="white"/>
</clipPath>
</defs>
</svg>
