<svg width="40" height="40" viewBox="0 0 40 40" fill="none" xmlns="http://www.w3.org/2000/svg">
<path d="M29 34H11L11.4786 27.5425L12.2276 17.466C12.3784 15.7501 13.1425 14.1481 14.3774 12.9589C15.6122 11.7697 17.2335 11.0746 18.9387 11.0031C18.999 10.999 19.0596 10.999 19.1199 11.0031H21.0451C22.3131 11.0093 23.5545 11.3712 24.6305 12.0484C25.5824 12.6228 26.3896 13.4118 26.9891 14.3535C27.5886 15.2953 27.9641 16.3643 28.0861 17.477L29 34Z" fill="#DC4741"/>
<g style="mix-blend-mode:color-dodge" opacity="0.5">
<path d="M25 22.4974C25.0005 23.5853 24.6784 24.6489 24.0744 25.5537C23.4703 26.4585 22.6115 27.1639 21.6066 27.5806C20.6016 27.9973 19.4957 28.1066 18.4286 27.8946C17.3616 27.6827 16.3813 27.1591 15.6119 26.39C14.8424 25.6209 14.3183 24.6409 14.1059 23.574C13.8934 22.507 14.0022 21.401 14.4184 20.3959C14.8346 19.3907 15.5396 18.5316 16.4441 17.9271C17.3486 17.3226 18.4121 17 19.5 17C20.9582 17 22.3568 17.5791 23.3882 18.61C24.4195 19.6409 24.9993 21.0391 25 22.4974Z" fill="#FFEC40"/>
</g>
<g style="mix-blend-mode:color-dodge" opacity="0.5">
<path d="M22 22.5C22 22.9945 21.8534 23.4778 21.5787 23.8889C21.304 24.3 20.9135 24.6205 20.4567 24.8097C19.9999 24.9989 19.4972 25.0484 19.0123 24.952C18.5273 24.8555 18.0819 24.6174 17.7322 24.2678C17.3826 23.9181 17.1445 23.4727 17.048 22.9877C16.9516 22.5028 17.0011 22.0001 17.1903 21.5433C17.3795 21.0865 17.7 20.696 18.1111 20.4213C18.5222 20.1466 19.0055 20 19.5 20C19.8283 20 20.1534 20.0647 20.4567 20.1903C20.76 20.3159 21.0356 20.5001 21.2678 20.7322C21.4999 20.9644 21.6841 21.24 21.8097 21.5433C21.9353 21.8466 22 22.1717 22 22.5Z" fill="#FFEC40"/>
</g>
<g style="mix-blend-mode:multiply" opacity="0.4">
<path d="M28.789 33.7073H10.8252L11.3028 27.3227C13.3321 28.0567 15.2021 28.2132 16.6998 27.2364C17.4824 26.7291 18.1624 25.9114 18.7102 24.7106C19.1094 23.7925 19.4062 22.8333 19.5953 21.8502C19.7301 21.2078 19.8283 20.5582 19.8894 19.9046C19.9895 18.8589 20.0111 17.8071 19.9542 16.7582C19.862 14.8904 19.4984 13.0459 18.8748 11.2829C18.8397 11.1831 18.7965 11.0805 18.748 10.9699C18.8081 10.9658 18.8686 10.9658 18.9287 10.9699H20.8501C22.1156 10.976 23.3544 11.3338 24.4283 12.0034C25.3782 12.5713 26.1839 13.3514 26.7822 14.2825C27.3805 15.2137 27.7552 16.2706 27.8769 17.3707L28.789 33.7073Z" fill="#B20F0F"/>
</g>
<g style="mix-blend-mode:multiply" opacity="0.5">
<path d="M29 34H20C21.4334 31.6395 22.5904 29.125 23.4486 26.5053C23.6586 25.8655 23.8511 25.2175 24.0261 24.5613C24.3826 23.2082 24.6247 21.8281 24.7501 20.4352C24.9724 17.6237 24.9002 14.7969 24.5345 12C25.5084 12.5763 26.334 13.3679 26.9467 14.3129C27.5594 15.258 27.9426 16.3306 28.066 17.4467L29 34Z" fill="#B20F0F"/>
</g>
<path d="M32 35.4985C32 37.432 30.9552 39 29.6684 39H10.3322C9.04538 39 8.00054 37.432 8.00054 35.4985C7.98709 34.6149 8.22627 33.7493 8.68381 33.0257C8.86575 32.7223 9.11004 32.4712 9.39659 32.2928C9.68315 32.1145 10.0038 32.0142 10.3322 32H29.6684C30.9552 32 32 33.568 32 35.4985Z" fill="#141412"/>
<path d="M30 34.5C30 34.7733 29.7347 35 29.4189 35H10.5811C10.26 35 10 34.7783 10 34.5C10 34.2267 10.2653 34 10.5811 34H29.4189C29.74 34 30 34.2217 30 34.5Z" fill="#606055"/>
<path d="M21 7.46469V0.535309C21 -0.178436 19 -0.178436 19 0.535309V7.46469C19 8.17844 21 8.17844 21 7.46469Z" fill="#D32020"/>
<path d="M25.1297 9.73936L29.9001 2.8285C30.3239 2.21856 29.2885 1.6543 28.8703 2.25887L24.0999 9.17241C23.6761 9.78235 24.7115 10.3466 25.1297 9.73936Z" fill="#D32020"/>
<path d="M28.8005 12.8941L33.7533 9.15768C34.332 8.71895 33.7872 7.66427 33.2007 8.1059L28.2479 11.8423C27.6666 12.281 28.214 13.3357 28.7979 12.8941H28.8005Z" fill="#D32020"/>
<path d="M30.5696 16L36.4167 15.2003C36.5695 15.1988 36.7159 15.1357 36.8247 15.0243C36.9336 14.9129 36.9964 14.762 37 14.6033C37 14.3177 36.7248 13.9607 36.4249 14.0035L30.5778 14.8004C30.4257 14.804 30.2807 14.8684 30.1731 14.9801C30.0655 15.0918 30.0035 15.2423 30 15.4002C30 15.5593 30.0609 15.7118 30.1692 15.8243C30.2776 15.9368 30.4246 16 30.5778 16H30.5696Z" fill="#D32020"/>
<path d="M15.901 9.17241L11.1285 2.25887C10.7104 1.6543 9.67802 2.21856 10.099 2.8285C11.6898 5.13212 13.2806 7.43574 14.8715 9.73936C15.2896 10.3466 16.322 9.78235 15.901 9.17241Z" fill="#D32020"/>
<path d="M11.7559 11.8425L6.80216 8.1065C6.21815 7.66493 5.66542 8.71076 6.24683 9.15815L11.2005 12.8941C11.7872 13.3357 12.3321 12.2811 11.7533 11.8425H11.7559Z" fill="#D32020"/>
<path d="M9.4224 14.7983L3.5776 14C3.42441 14 3.2775 14.0633 3.16918 14.176C3.06085 14.2887 3 14.4415 3 14.6009C3.00352 14.7588 3.06559 14.9092 3.17323 15.0207C3.28088 15.1321 3.42576 15.1959 3.5776 15.1989L9.4224 16C9.57536 15.9992 9.72186 15.9357 9.83003 15.8232C9.93819 15.7107 9.99928 15.5583 10 15.3991C9.99584 15.2412 9.93365 15.0908 9.82621 14.9791C9.71878 14.8673 9.57427 14.8026 9.4224 14.7983Z" fill="#D32020"/>
<g style="mix-blend-mode:color-dodge" opacity="0.3">
<path d="M16.2415 29.6328C16.2162 30.0153 16.0225 30.3735 15.7025 30.6292C15.3825 30.8849 14.9621 31.0175 14.533 30.9981C14.1041 30.9756 13.7025 30.8028 13.4158 30.5174C13.129 30.232 12.9803 29.8571 13.0021 29.4744L13.7584 16.3672C13.7837 15.9847 13.9774 15.6265 14.2974 15.3708C14.6174 15.1151 15.0377 14.9825 15.4669 15.0019C15.8961 15.0237 16.2981 15.1963 16.585 15.4819C16.8719 15.7674 17.0203 16.1427 16.9978 16.5256L16.2415 29.6328Z" fill="#FFF399"/>
</g>
</svg>
